<?xml version="1.0" standalone="no"?>
<!DOCTYPE svg PUBLIC "-//W3C//DTD SVG 20010904//EN" "http://www.w3.org/TR/2001/REC-SVG-20010904/DTD/svg10.dtd">
<svg xmlns="http://www.w3.org/2000/svg" version="1.0" width="728.000000pt" height="690.000000pt" viewBox="0 0 728.000000 690.000000" preserveAspectRatio="xMidYMid meet">
<metadata>
Created by potrace 1.16, written by Peter Selinger 2001-2019
<meta name="Producer" content="Online-Convert"/></metadata>
<g transform="translate(0.000000,690.000000) scale(0.100000,-0.100000)" fill="#000000" stroke="none">
<path d="M2820 6890 c-319 -8 -347 -11 -620 -70 -566 -123 -1059 -393 -1478 -810 -310 -308 -554 -686 -682 -1060 -31 -90 -33 -103 -34 -240 -1 -142 0 -146 29 -204 56 -111 147 -176 245 -176 49 0 142 33 202 71 65 42 172 158 248 271 212 311 337 450 552 611 171 128 395 257 623 358 l100 44 415 0 c228 1 502 -1 608 -3 l192 -3 0 -32 c0 -50 -122 -804 -190 -1177 -33 -184 -106 -558 -161 -830 -187 -925 -215 -1084 -245 -1410 -29 -315 -7 -733 53 -1000 67 -304 213 -591 397 -778 227 -232 494 -368 850 -432 92 -17 155 -20 387 -20 241 0 293 3 386 21 334 64 600 204 833 438 196 197 338 429 424 693 55 168 71 262 70 433 -1 169 -17 262 -62 360 -60 128 -144 186 -279 193 l-82 4 -11 -43 c-52 -204 -177 -498 -272 -637 -102 -150 -244 -273 -373 -325 -78 -31 -83 -32 -240 -32 -149 0 -165 2 -240 28 -617 216 -932 942 -876 2023 33 660 148 1269 432 2290 l64 232 725 6 c811 7 1075 17 1195 45 342 79 614 222 857 450 115 109 194 205 316 386 l102 150 -43 38 c-63 56 -169 105 -277 127 -93 19 -144 20 -1965 18 -1028 -1 -2007 -5 -2175 -8z"/>
</g>
</svg>
